<?xml version="1.0" encoding="utf-8"?>
<!-- Generator: Adobe Illustrator 24.0.1, SVG Export Plug-In . SVG Version: 6.00 Build 0)  -->
<svg version="1.1" id="Capa_1" xmlns="http://www.w3.org/2000/svg" xmlns:xlink="http://www.w3.org/1999/xlink" x="0px" y="0px"
	 viewBox="0 0 312.8 312.8" style="enable-background:new 0 0 312.8 312.8;" xml:space="preserve">
<style type="text/css">
	.st0{fill:#DDDDDD;}
</style>
<g>
	<g>
		<path class="st0" d="M305.2,178.2c-3.2-0.8-6.4,0-9.2,2c-10.4,8.8-22.4,16-35.6,20.8c-12.4,4.8-26,7.2-40.4,7.2
			c-32.4,0-62-13.2-83.2-34.4s-34.4-50.8-34.4-83.2c0-13.6,2.4-26.8,6.4-38.8c4.4-12.8,10.8-24.4,19.2-34.4
			c3.6-4.4,2.8-10.8-1.6-14.4c-2.8-2-6-2.8-9.2-2c-34,9.2-63.6,29.6-84.8,56.8C12,84.6,0,117.8,0,153.8c0,43.6,17.6,83.2,46.4,112
			s68,46.4,112,46.4c36.8,0,70.8-12.8,98-34c27.6-21.6,47.6-52.4,56-87.6C314,185,310.8,179.4,305.2,178.2z"/>
	</g>
</g>
</svg>
